<mxfile host="app.diagrams.net" agent="Mozilla/5.0 (Windows NT 10.0; Win64; x64) AppleWebKit/537.36 (KHTML, like Gecko) Chrome/132.0.0.0 Safari/537.36 Edg/132.0.0.0" version="26.0.6">
  <diagram name="Page-1" id="3-dAiq0loSyunrDHpGPL">
    <mxGraphModel dx="1426" dy="747" grid="1" gridSize="10" guides="1" tooltips="1" connect="1" arrows="1" fold="1" page="1" pageScale="1" pageWidth="850" pageHeight="1100" math="0" shadow="0">
      <root>
        <mxCell id="0" />
        <mxCell id="1" parent="0" />
        <mxCell id="ZD_779GeT0CRbiyJHTvv-1" style="edgeStyle=orthogonalEdgeStyle;rounded=0;orthogonalLoop=1;jettySize=auto;html=1;fillColor=#f5f5f5;strokeColor=#666666;movable=0;resizable=0;rotatable=0;deletable=0;editable=0;locked=1;connectable=0;entryX=0.5;entryY=1;entryDx=0;entryDy=0;exitX=0.5;exitY=0;exitDx=0;exitDy=0;" parent="1" source="ZD_779GeT0CRbiyJHTvv-2" target="ZD_779GeT0CRbiyJHTvv-26" edge="1">
          <mxGeometry relative="1" as="geometry">
            <mxPoint x="770" y="410" as="sourcePoint" />
          </mxGeometry>
        </mxCell>
        <mxCell id="ZD_779GeT0CRbiyJHTvv-2" value="User Query" style="rounded=1;whiteSpace=wrap;html=1;fillColor=#e1d5e7;strokeColor=#9673a6;movable=0;resizable=0;rotatable=0;deletable=0;editable=0;locked=1;connectable=0;" parent="1" vertex="1">
          <mxGeometry x="660" y="440" width="120" height="60" as="geometry" />
        </mxCell>
        <mxCell id="ZD_779GeT0CRbiyJHTvv-3" style="rounded=0;orthogonalLoop=1;jettySize=auto;html=1;entryX=0.5;entryY=0;entryDx=0;entryDy=0;fillColor=#f5f5f5;strokeColor=#666666;movable=0;resizable=0;rotatable=0;deletable=0;editable=0;locked=1;connectable=0;exitX=1;exitY=0.5;exitDx=0;exitDy=0;edgeStyle=orthogonalEdgeStyle;" parent="1" source="ZD_779GeT0CRbiyJHTvv-4" target="ZD_779GeT0CRbiyJHTvv-7" edge="1">
          <mxGeometry relative="1" as="geometry">
            <mxPoint x="1310" y="290" as="targetPoint" />
          </mxGeometry>
        </mxCell>
        <mxCell id="ZD_779GeT0CRbiyJHTvv-4" value="Grade Retrieved Docs Node" style="ellipse;whiteSpace=wrap;html=1;aspect=fixed;fillColor=#dae8fc;strokeColor=#6c8ebf;labelBackgroundColor=none;movable=0;resizable=0;rotatable=0;deletable=0;editable=0;locked=1;connectable=0;" parent="1" vertex="1">
          <mxGeometry x="1140" y="140" width="80" height="80" as="geometry" />
        </mxCell>
        <mxCell id="ZD_779GeT0CRbiyJHTvv-6" value="Yes" style="rounded=0;orthogonalLoop=1;jettySize=auto;html=1;entryX=0.5;entryY=0;entryDx=0;entryDy=0;fillColor=#d5e8d4;strokeColor=#82b366;exitX=0;exitY=0.5;exitDx=0;exitDy=0;elbow=vertical;movable=0;resizable=0;rotatable=0;deletable=0;editable=0;locked=1;connectable=0;edgeStyle=orthogonalEdgeStyle;" parent="1" source="ZD_779GeT0CRbiyJHTvv-7" target="ZD_779GeT0CRbiyJHTvv-11" edge="1">
          <mxGeometry x="-0.6429" relative="1" as="geometry">
            <mxPoint x="1380" y="290" as="sourcePoint" />
            <mxPoint x="980" y="370" as="targetPoint" />
            <mxPoint as="offset" />
            <Array as="points">
              <mxPoint x="940" y="240" />
            </Array>
          </mxGeometry>
        </mxCell>
        <mxCell id="ZD_779GeT0CRbiyJHTvv-51" value="No" style="rounded=0;orthogonalLoop=1;jettySize=auto;html=1;exitX=1;exitY=0.5;exitDx=0;exitDy=0;entryX=0;entryY=0;entryDx=0;entryDy=0;fillColor=#f8cecc;strokeColor=#b85450;edgeStyle=orthogonalEdgeStyle;movable=0;resizable=0;rotatable=0;deletable=0;editable=0;locked=1;connectable=0;" parent="1" source="ZD_779GeT0CRbiyJHTvv-7" target="ZD_779GeT0CRbiyJHTvv-9" edge="1">
          <mxGeometry x="-0.2804" relative="1" as="geometry">
            <Array as="points">
              <mxPoint x="1392" y="240" />
            </Array>
            <mxPoint as="offset" />
          </mxGeometry>
        </mxCell>
        <mxCell id="ZD_779GeT0CRbiyJHTvv-7" value="Add Web Search?" style="rhombus;whiteSpace=wrap;html=1;labelBackgroundColor=none;fillColor=#f5f5f5;fontColor=#333333;strokeColor=#666666;movable=0;resizable=0;rotatable=0;deletable=0;editable=0;locked=1;connectable=0;" parent="1" vertex="1">
          <mxGeometry x="1260" y="200" width="80" height="80" as="geometry" />
        </mxCell>
        <mxCell id="ZD_779GeT0CRbiyJHTvv-8" style="rounded=0;orthogonalLoop=1;jettySize=auto;html=1;entryX=0.5;entryY=1;entryDx=0;entryDy=0;fillColor=#f5f5f5;strokeColor=#666666;exitX=0.5;exitY=0;exitDx=0;exitDy=0;movable=0;resizable=0;rotatable=0;deletable=0;editable=0;locked=1;connectable=0;" parent="1" source="ZD_779GeT0CRbiyJHTvv-9" target="ZD_779GeT0CRbiyJHTvv-31" edge="1">
          <mxGeometry relative="1" as="geometry">
            <mxPoint x="1454.9613893836686" y="300.30888493065095" as="sourcePoint" />
            <mxPoint x="1490" y="260" as="targetPoint" />
            <Array as="points" />
          </mxGeometry>
        </mxCell>
        <mxCell id="ZD_779GeT0CRbiyJHTvv-9" value="Generate Response Node" style="ellipse;whiteSpace=wrap;html=1;aspect=fixed;fillColor=#dae8fc;strokeColor=#6c8ebf;gradientColor=none;labelBackgroundColor=none;movable=0;resizable=0;rotatable=0;deletable=0;editable=0;locked=1;connectable=0;" parent="1" vertex="1">
          <mxGeometry x="1380" y="260" width="80" height="80" as="geometry" />
        </mxCell>
        <mxCell id="ZD_779GeT0CRbiyJHTvv-10" style="rounded=0;orthogonalLoop=1;jettySize=auto;html=1;fillColor=#f5f5f5;strokeColor=#666666;edgeStyle=orthogonalEdgeStyle;exitX=1;exitY=0.5;exitDx=0;exitDy=0;entryX=0;entryY=0.5;entryDx=0;entryDy=0;movable=0;resizable=0;rotatable=0;deletable=0;editable=0;locked=1;connectable=0;" parent="1" source="ZD_779GeT0CRbiyJHTvv-11" target="ZD_779GeT0CRbiyJHTvv-13" edge="1">
          <mxGeometry relative="1" as="geometry">
            <mxPoint x="920" y="450" as="sourcePoint" />
            <mxPoint x="1510" y="580" as="targetPoint" />
            <Array as="points">
              <mxPoint x="1020" y="300" />
            </Array>
          </mxGeometry>
        </mxCell>
        <mxCell id="ZD_779GeT0CRbiyJHTvv-11" value="Re-write Query for Web Search Node" style="ellipse;whiteSpace=wrap;html=1;aspect=fixed;fillColor=#dae8fc;strokeColor=#6c8ebf;gradientColor=none;labelBackgroundColor=none;labelBorderColor=none;movable=0;resizable=0;rotatable=0;deletable=0;editable=0;locked=1;connectable=0;" parent="1" vertex="1">
          <mxGeometry x="900" y="260" width="80" height="80" as="geometry" />
        </mxCell>
        <mxCell id="ZD_779GeT0CRbiyJHTvv-12" style="rounded=0;orthogonalLoop=1;jettySize=auto;html=1;entryX=0;entryY=0.5;entryDx=0;entryDy=0;fillColor=#f5f5f5;strokeColor=#666666;exitX=1;exitY=0.5;exitDx=0;exitDy=0;movable=0;resizable=0;rotatable=0;deletable=0;editable=0;locked=1;connectable=0;" parent="1" source="ZD_779GeT0CRbiyJHTvv-13" target="ZD_779GeT0CRbiyJHTvv-44" edge="1">
          <mxGeometry relative="1" as="geometry">
            <mxPoint x="1140" y="500" as="sourcePoint" />
            <mxPoint x="1460" y="380" as="targetPoint" />
          </mxGeometry>
        </mxCell>
        <mxCell id="ZD_779GeT0CRbiyJHTvv-13" value="Web Search Tool Node" style="ellipse;whiteSpace=wrap;html=1;aspect=fixed;fillColor=#f5f5f5;strokeColor=#666666;fontColor=#333333;movable=0;resizable=0;rotatable=0;deletable=0;editable=0;locked=1;connectable=0;" parent="1" vertex="1">
          <mxGeometry x="1020" y="260" width="80" height="80" as="geometry" />
        </mxCell>
        <mxCell id="ZD_779GeT0CRbiyJHTvv-14" value="AI Answer" style="rounded=1;whiteSpace=wrap;html=1;fillColor=#e1d5e7;strokeColor=#9673a6;movable=0;resizable=0;rotatable=0;deletable=0;editable=0;locked=1;connectable=0;" parent="1" vertex="1">
          <mxGeometry x="1550" y="30" width="120" height="60" as="geometry" />
        </mxCell>
        <mxCell id="ZD_779GeT0CRbiyJHTvv-15" value="No" style="edgeStyle=orthogonalEdgeStyle;rounded=0;orthogonalLoop=1;jettySize=auto;html=1;entryX=0.5;entryY=0;entryDx=0;entryDy=0;fillColor=#f8cecc;strokeColor=#b85450;movable=0;resizable=0;rotatable=0;deletable=0;editable=0;locked=1;connectable=0;exitX=0.5;exitY=1;exitDx=0;exitDy=0;" parent="1" source="ZD_779GeT0CRbiyJHTvv-17" target="ZD_779GeT0CRbiyJHTvv-20" edge="1">
          <mxGeometry relative="1" as="geometry">
            <Array as="points">
              <mxPoint x="1540" y="320" />
            </Array>
            <mxPoint as="offset" />
          </mxGeometry>
        </mxCell>
        <mxCell id="ZD_779GeT0CRbiyJHTvv-16" value="Yes" style="rounded=0;orthogonalLoop=1;jettySize=auto;html=1;entryX=1;entryY=0;entryDx=0;entryDy=0;fillColor=#d5e8d4;strokeColor=#82b366;exitX=0;exitY=0.5;exitDx=0;exitDy=0;elbow=vertical;movable=0;resizable=0;rotatable=0;deletable=0;editable=0;locked=1;connectable=0;edgeStyle=orthogonalEdgeStyle;" parent="1" source="ZD_779GeT0CRbiyJHTvv-17" target="ZD_779GeT0CRbiyJHTvv-9" edge="1">
          <mxGeometry x="-0.2804" relative="1" as="geometry">
            <mxPoint as="offset" />
            <Array as="points">
              <mxPoint x="1448" y="240" />
            </Array>
          </mxGeometry>
        </mxCell>
        <mxCell id="ZD_779GeT0CRbiyJHTvv-17" value="Hallucination?" style="rhombus;whiteSpace=wrap;html=1;fillColor=#dae8fc;strokeColor=#6c8ebf;labelBackgroundColor=none;movable=0;resizable=0;rotatable=0;deletable=0;editable=0;locked=1;connectable=0;" parent="1" vertex="1">
          <mxGeometry x="1500" y="200" width="80" height="80" as="geometry" />
        </mxCell>
        <mxCell id="ZD_779GeT0CRbiyJHTvv-18" value="No" style="edgeStyle=orthogonalEdgeStyle;rounded=0;orthogonalLoop=1;jettySize=auto;html=1;fillColor=#f8cecc;strokeColor=#b85450;movable=0;resizable=0;rotatable=0;deletable=0;editable=0;locked=1;connectable=0;entryX=1;entryY=1;entryDx=0;entryDy=0;exitX=0;exitY=0.5;exitDx=0;exitDy=0;" parent="1" source="ZD_779GeT0CRbiyJHTvv-20" target="ZD_779GeT0CRbiyJHTvv-9" edge="1">
          <mxGeometry x="-0.2804" relative="1" as="geometry">
            <Array as="points">
              <mxPoint x="1448" y="360" />
            </Array>
            <mxPoint x="1770" y="490" as="sourcePoint" />
            <mxPoint x="730" y="280" as="targetPoint" />
            <mxPoint as="offset" />
          </mxGeometry>
        </mxCell>
        <mxCell id="ZD_779GeT0CRbiyJHTvv-19" value="Yes" style="edgeStyle=orthogonalEdgeStyle;rounded=0;orthogonalLoop=1;jettySize=auto;html=1;entryX=0.5;entryY=1;entryDx=0;entryDy=0;fillColor=#d5e8d4;strokeColor=#82b366;exitX=1;exitY=0.5;exitDx=0;exitDy=0;movable=0;resizable=0;rotatable=0;deletable=0;editable=0;locked=1;connectable=0;" parent="1" source="ZD_779GeT0CRbiyJHTvv-20" target="ZD_779GeT0CRbiyJHTvv-28" edge="1">
          <mxGeometry x="-0.25" relative="1" as="geometry">
            <Array as="points">
              <mxPoint x="1640" y="360" />
            </Array>
            <mxPoint x="1810" y="460" as="sourcePoint" />
            <mxPoint x="1830" y="310" as="targetPoint" />
            <mxPoint as="offset" />
          </mxGeometry>
        </mxCell>
        <mxCell id="ZD_779GeT0CRbiyJHTvv-20" value="Answers the query?" style="rhombus;whiteSpace=wrap;html=1;fillColor=#dae8fc;strokeColor=#6c8ebf;labelBackgroundColor=none;movable=0;resizable=0;rotatable=0;deletable=0;editable=0;locked=1;connectable=0;" parent="1" vertex="1">
          <mxGeometry x="1500" y="320" width="80" height="80" as="geometry" />
        </mxCell>
        <mxCell id="ZD_779GeT0CRbiyJHTvv-21" style="rounded=0;orthogonalLoop=1;jettySize=auto;html=1;entryX=0;entryY=0.5;entryDx=0;entryDy=0;fillColor=#f5f5f5;strokeColor=#666666;exitX=1;exitY=1;exitDx=0;exitDy=0;movable=0;resizable=0;rotatable=0;deletable=0;editable=0;locked=1;connectable=0;" parent="1" source="ZD_779GeT0CRbiyJHTvv-24" target="ZD_779GeT0CRbiyJHTvv-11" edge="1">
          <mxGeometry relative="1" as="geometry">
            <mxPoint x="800" y="490" as="sourcePoint" />
            <mxPoint x="1270" y="580" as="targetPoint" />
          </mxGeometry>
        </mxCell>
        <mxCell id="ZD_779GeT0CRbiyJHTvv-22" style="rounded=0;orthogonalLoop=1;jettySize=auto;html=1;entryX=0;entryY=0.5;entryDx=0;entryDy=0;fillColor=#f5f5f5;strokeColor=#666666;movable=0;resizable=0;rotatable=0;deletable=0;editable=0;locked=1;connectable=0;exitX=1;exitY=0;exitDx=0;exitDy=0;" parent="1" source="ZD_779GeT0CRbiyJHTvv-24" target="ZD_779GeT0CRbiyJHTvv-40" edge="1">
          <mxGeometry relative="1" as="geometry" />
        </mxCell>
        <mxCell id="ZD_779GeT0CRbiyJHTvv-23" style="rounded=0;orthogonalLoop=1;jettySize=auto;html=1;entryX=0.5;entryY=1;entryDx=0;entryDy=0;fillColor=#f5f5f5;strokeColor=#666666;exitX=0.5;exitY=0;exitDx=0;exitDy=0;movable=0;resizable=0;rotatable=0;deletable=0;editable=0;locked=1;connectable=0;edgeStyle=orthogonalEdgeStyle;" parent="1" source="ZD_779GeT0CRbiyJHTvv-24" target="ZD_779GeT0CRbiyJHTvv-42" edge="1">
          <mxGeometry relative="1" as="geometry">
            <mxPoint x="825" y="180" as="sourcePoint" />
            <mxPoint x="875" y="50" as="targetPoint" />
          </mxGeometry>
        </mxCell>
        <mxCell id="ZD_779GeT0CRbiyJHTvv-46" style="edgeStyle=orthogonalEdgeStyle;rounded=0;orthogonalLoop=1;jettySize=auto;html=1;exitX=0.5;exitY=1;exitDx=0;exitDy=0;entryX=0.5;entryY=0;entryDx=0;entryDy=0;fillColor=#f5f5f5;strokeColor=#666666;movable=0;resizable=0;rotatable=0;deletable=0;editable=0;locked=1;connectable=0;" parent="1" source="ZD_779GeT0CRbiyJHTvv-24" target="ZD_779GeT0CRbiyJHTvv-45" edge="1">
          <mxGeometry relative="1" as="geometry" />
        </mxCell>
        <mxCell id="ZD_779GeT0CRbiyJHTvv-24" value="Query&amp;nbsp;&lt;div&gt;Router&lt;/div&gt;" style="rhombus;whiteSpace=wrap;html=1;fillColor=#dae8fc;strokeColor=#6c8ebf;rounded=0;shadow=0;labelBackgroundColor=none;movable=0;resizable=0;rotatable=0;deletable=0;editable=0;locked=1;connectable=0;" parent="1" vertex="1">
          <mxGeometry x="800" y="200" width="80" height="80" as="geometry" />
        </mxCell>
        <mxCell id="ZD_779GeT0CRbiyJHTvv-25" style="edgeStyle=orthogonalEdgeStyle;rounded=0;orthogonalLoop=1;jettySize=auto;html=1;entryX=0.5;entryY=1;entryDx=0;entryDy=0;fillColor=#f5f5f5;strokeColor=#666666;movable=0;resizable=0;rotatable=0;deletable=0;editable=0;locked=1;connectable=0;exitX=0.5;exitY=0;exitDx=0;exitDy=0;" parent="1" source="ZD_779GeT0CRbiyJHTvv-26" target="ZD_779GeT0CRbiyJHTvv-36" edge="1">
          <mxGeometry relative="1" as="geometry" />
        </mxCell>
        <mxCell id="ZD_779GeT0CRbiyJHTvv-26" value="Image Parsing&amp;nbsp;&lt;div&gt;Node&lt;/div&gt;" style="ellipse;whiteSpace=wrap;html=1;aspect=fixed;fillColor=#dae8fc;strokeColor=#6c8ebf;movable=0;resizable=0;rotatable=0;deletable=0;editable=0;locked=1;connectable=0;" parent="1" vertex="1">
          <mxGeometry x="680" y="320" width="80" height="80" as="geometry" />
        </mxCell>
        <mxCell id="ZD_779GeT0CRbiyJHTvv-27" style="edgeStyle=orthogonalEdgeStyle;rounded=0;orthogonalLoop=1;jettySize=auto;html=1;entryX=0.75;entryY=1;entryDx=0;entryDy=0;fillColor=#f5f5f5;strokeColor=#666666;exitX=0.5;exitY=0;exitDx=0;exitDy=0;movable=0;resizable=0;rotatable=0;deletable=0;editable=0;locked=1;connectable=0;" parent="1" source="ZD_779GeT0CRbiyJHTvv-28" target="ZD_779GeT0CRbiyJHTvv-14" edge="1">
          <mxGeometry relative="1" as="geometry">
            <mxPoint x="1830" y="140" as="sourcePoint" />
            <mxPoint x="1700" y="-160" as="targetPoint" />
            <Array as="points" />
          </mxGeometry>
        </mxCell>
        <mxCell id="ZD_779GeT0CRbiyJHTvv-28" value="Final Answer" style="ellipse;whiteSpace=wrap;html=1;aspect=fixed;fillColor=#f5f5f5;strokeColor=#666666;fontColor=#333333;movable=0;resizable=0;rotatable=0;deletable=0;editable=0;locked=1;connectable=0;" parent="1" vertex="1">
          <mxGeometry x="1600" y="260" width="80" height="80" as="geometry" />
        </mxCell>
        <mxCell id="ZD_779GeT0CRbiyJHTvv-29" value="Yes" style="edgeStyle=orthogonalEdgeStyle;rounded=0;orthogonalLoop=1;jettySize=auto;html=1;fillColor=#d5e8d4;strokeColor=#82b366;exitX=0;exitY=0.5;exitDx=0;exitDy=0;jumpStyle=arc;movable=0;resizable=0;rotatable=0;deletable=0;editable=0;locked=1;connectable=0;entryX=0.5;entryY=1;entryDx=0;entryDy=0;" parent="1" source="ZD_779GeT0CRbiyJHTvv-31" target="ZD_779GeT0CRbiyJHTvv-33" edge="1">
          <mxGeometry x="-0.6667" relative="1" as="geometry">
            <mxPoint x="1380" y="400" as="sourcePoint" />
            <mxPoint x="1390" y="100" as="targetPoint" />
            <Array as="points">
              <mxPoint x="1340" y="180" />
            </Array>
            <mxPoint as="offset" />
          </mxGeometry>
        </mxCell>
        <mxCell id="ZD_779GeT0CRbiyJHTvv-30" value="No" style="edgeStyle=orthogonalEdgeStyle;rounded=0;orthogonalLoop=1;jettySize=auto;html=1;entryX=0.5;entryY=0;entryDx=0;entryDy=0;fillColor=#f8cecc;strokeColor=#b85450;movable=0;resizable=0;rotatable=0;deletable=0;editable=0;locked=1;connectable=0;exitX=1;exitY=0.5;exitDx=0;exitDy=0;" parent="1" source="ZD_779GeT0CRbiyJHTvv-31" target="ZD_779GeT0CRbiyJHTvv-17" edge="1">
          <mxGeometry x="-0.2" relative="1" as="geometry">
            <Array as="points">
              <mxPoint x="1540" y="180" />
            </Array>
            <mxPoint as="offset" />
            <mxPoint x="1489.9999999999995" y="180" as="sourcePoint" />
          </mxGeometry>
        </mxCell>
        <mxCell id="ZD_779GeT0CRbiyJHTvv-31" value="Too many tries?" style="rhombus;whiteSpace=wrap;html=1;fillColor=#f5f5f5;strokeColor=#666666;labelBackgroundColor=none;fontColor=#333333;movable=0;resizable=0;rotatable=0;deletable=0;editable=0;locked=1;connectable=0;" parent="1" vertex="1">
          <mxGeometry x="1380" y="140" width="80" height="80" as="geometry" />
        </mxCell>
        <mxCell id="ZD_779GeT0CRbiyJHTvv-32" style="edgeStyle=orthogonalEdgeStyle;rounded=0;orthogonalLoop=1;jettySize=auto;html=1;entryX=0;entryY=0.5;entryDx=0;entryDy=0;fillColor=#f5f5f5;strokeColor=#666666;exitX=1;exitY=0.5;exitDx=0;exitDy=0;movable=0;resizable=0;rotatable=0;deletable=0;editable=0;locked=1;connectable=0;" parent="1" source="ZD_779GeT0CRbiyJHTvv-33" target="ZD_779GeT0CRbiyJHTvv-14" edge="1">
          <mxGeometry relative="1" as="geometry">
            <mxPoint x="1230" as="sourcePoint" />
            <mxPoint x="1450" y="-30" as="targetPoint" />
          </mxGeometry>
        </mxCell>
        <mxCell id="ZD_779GeT0CRbiyJHTvv-33" value="Refined Query Request&amp;nbsp;&lt;span style=&quot;background-color: initial;&quot;&gt;Node&lt;/span&gt;" style="ellipse;whiteSpace=wrap;html=1;aspect=fixed;fillColor=#dae8fc;strokeColor=#6c8ebf;movable=0;resizable=0;rotatable=0;deletable=0;editable=0;locked=1;connectable=0;" parent="1" vertex="1">
          <mxGeometry x="1300" y="20" width="80" height="80" as="geometry" />
        </mxCell>
        <mxCell id="ZD_779GeT0CRbiyJHTvv-34" value="No" style="rounded=0;orthogonalLoop=1;jettySize=auto;html=1;fillColor=#f8cecc;strokeColor=#b85450;exitX=1;exitY=0.5;exitDx=0;exitDy=0;edgeStyle=orthogonalEdgeStyle;entryX=0;entryY=0.5;entryDx=0;entryDy=0;movable=0;resizable=0;rotatable=0;deletable=0;editable=0;locked=1;connectable=0;" parent="1" source="ZD_779GeT0CRbiyJHTvv-36" target="ZD_779GeT0CRbiyJHTvv-24" edge="1">
          <mxGeometry relative="1" as="geometry">
            <mxPoint x="769.5" y="330" as="sourcePoint" />
            <mxPoint x="739.5" y="320" as="targetPoint" />
          </mxGeometry>
        </mxCell>
        <mxCell id="ZD_779GeT0CRbiyJHTvv-35" value="Yes" style="edgeStyle=orthogonalEdgeStyle;rounded=0;orthogonalLoop=1;jettySize=auto;html=1;entryX=0;entryY=0.5;entryDx=0;entryDy=0;labelBackgroundColor=#FFFFFF;fillColor=#d5e8d4;strokeColor=#82b366;exitX=0.5;exitY=0;exitDx=0;exitDy=0;movable=0;resizable=0;rotatable=0;deletable=0;editable=0;locked=1;connectable=0;" parent="1" source="ZD_779GeT0CRbiyJHTvv-36" target="ZD_779GeT0CRbiyJHTvv-33" edge="1">
          <mxGeometry x="0.2121" relative="1" as="geometry">
            <mxPoint x="700" y="130" as="sourcePoint" />
            <mxPoint x="1340" y="-60" as="targetPoint" />
            <Array as="points">
              <mxPoint x="720" y="60" />
            </Array>
            <mxPoint as="offset" />
          </mxGeometry>
        </mxCell>
        <mxCell id="ZD_779GeT0CRbiyJHTvv-36" value="Moderation needed?" style="rhombus;whiteSpace=wrap;html=1;fillColor=#dae8fc;strokeColor=#6c8ebf;rounded=0;shadow=0;labelBackgroundColor=none;movable=0;resizable=0;rotatable=0;deletable=0;editable=0;locked=1;connectable=0;" parent="1" vertex="1">
          <mxGeometry x="680" y="200" width="80" height="80" as="geometry" />
        </mxCell>
        <mxCell id="ZD_779GeT0CRbiyJHTvv-37" style="rounded=0;orthogonalLoop=1;jettySize=auto;html=1;fillColor=#f5f5f5;strokeColor=#666666;exitX=1;exitY=0.5;exitDx=0;exitDy=0;entryX=0;entryY=0.5;entryDx=0;entryDy=0;movable=0;resizable=0;rotatable=0;deletable=0;editable=0;locked=1;connectable=0;edgeStyle=orthogonalEdgeStyle;" parent="1" source="ZD_779GeT0CRbiyJHTvv-38" target="ZD_779GeT0CRbiyJHTvv-4" edge="1">
          <mxGeometry relative="1" as="geometry">
            <mxPoint x="1040" y="250" as="sourcePoint" />
          </mxGeometry>
        </mxCell>
        <mxCell id="ZD_779GeT0CRbiyJHTvv-38" value="Public&amp;nbsp;&lt;div&gt;&lt;span style=&quot;background-color: initial;&quot;&gt;RAG&amp;nbsp;&lt;/span&gt;&lt;/div&gt;&lt;div&gt;&lt;span style=&quot;background-color: initial;&quot;&gt;Node&lt;/span&gt;&lt;/div&gt;" style="ellipse;whiteSpace=wrap;html=1;aspect=fixed;fillColor=#f5f5f5;strokeColor=#666666;fontColor=#333333;movable=0;resizable=0;rotatable=0;deletable=0;editable=0;locked=1;connectable=0;" parent="1" vertex="1">
          <mxGeometry x="1020" y="140" width="80" height="80" as="geometry" />
        </mxCell>
        <mxCell id="ZD_779GeT0CRbiyJHTvv-39" style="edgeStyle=orthogonalEdgeStyle;rounded=0;orthogonalLoop=1;jettySize=auto;html=1;entryX=0;entryY=0.5;entryDx=0;entryDy=0;fillColor=#f5f5f5;strokeColor=#666666;movable=0;resizable=0;rotatable=0;deletable=0;editable=0;locked=1;connectable=0;exitX=1;exitY=0.5;exitDx=0;exitDy=0;" parent="1" source="ZD_779GeT0CRbiyJHTvv-40" target="ZD_779GeT0CRbiyJHTvv-38" edge="1">
          <mxGeometry relative="1" as="geometry">
            <mxPoint x="1050" y="240" as="targetPoint" />
          </mxGeometry>
        </mxCell>
        <mxCell id="ZD_779GeT0CRbiyJHTvv-40" value="Re-write Query for RAG Node" style="ellipse;whiteSpace=wrap;html=1;aspect=fixed;fillColor=#dae8fc;strokeColor=#6c8ebf;gradientColor=none;labelBackgroundColor=none;movable=0;resizable=0;rotatable=0;deletable=0;editable=0;locked=1;connectable=0;" parent="1" vertex="1">
          <mxGeometry x="900" y="140" width="80" height="80" as="geometry" />
        </mxCell>
        <mxCell id="ZD_779GeT0CRbiyJHTvv-41" style="edgeStyle=orthogonalEdgeStyle;rounded=0;orthogonalLoop=1;jettySize=auto;html=1;fillColor=#f5f5f5;strokeColor=#666666;jumpStyle=arc;exitX=1;exitY=0.5;exitDx=0;exitDy=0;movable=0;resizable=0;rotatable=0;deletable=0;editable=0;locked=1;connectable=0;entryX=0.25;entryY=1;entryDx=0;entryDy=0;" parent="1" source="ZD_779GeT0CRbiyJHTvv-42" target="ZD_779GeT0CRbiyJHTvv-14" edge="1">
          <mxGeometry relative="1" as="geometry">
            <mxPoint x="900" y="320" as="sourcePoint" />
            <mxPoint x="1650" y="90" as="targetPoint" />
            <Array as="points">
              <mxPoint x="1580" y="120" />
            </Array>
          </mxGeometry>
        </mxCell>
        <mxCell id="ZD_779GeT0CRbiyJHTvv-42" value="Generate Simple Response Node" style="ellipse;whiteSpace=wrap;html=1;aspect=fixed;fillColor=#dae8fc;strokeColor=#6c8ebf;gradientColor=none;labelBackgroundColor=none;movable=0;resizable=0;rotatable=0;deletable=0;editable=0;locked=1;connectable=0;" parent="1" vertex="1">
          <mxGeometry x="800" y="80" width="80" height="80" as="geometry" />
        </mxCell>
        <mxCell id="ZD_779GeT0CRbiyJHTvv-43" style="edgeStyle=orthogonalEdgeStyle;rounded=0;orthogonalLoop=1;jettySize=auto;html=1;entryX=0;entryY=0.5;entryDx=0;entryDy=0;exitX=1;exitY=0.5;exitDx=0;exitDy=0;fillColor=#f5f5f5;strokeColor=#666666;movable=0;resizable=0;rotatable=0;deletable=0;editable=0;locked=1;connectable=0;" parent="1" source="ZD_779GeT0CRbiyJHTvv-44" target="ZD_779GeT0CRbiyJHTvv-9" edge="1">
          <mxGeometry relative="1" as="geometry">
            <Array as="points">
              <mxPoint x="1360" y="300" />
              <mxPoint x="1360" y="300" />
            </Array>
          </mxGeometry>
        </mxCell>
        <mxCell id="ZD_779GeT0CRbiyJHTvv-44" value="Grade Retrieved Docs Node" style="ellipse;whiteSpace=wrap;html=1;aspect=fixed;fillColor=#dae8fc;strokeColor=#6c8ebf;labelBackgroundColor=none;movable=0;resizable=0;rotatable=0;deletable=0;editable=0;locked=1;connectable=0;" parent="1" vertex="1">
          <mxGeometry x="1140" y="260" width="80" height="80" as="geometry" />
        </mxCell>
        <mxCell id="aejjZPSnVVaKgzwRb5An-1" style="edgeStyle=orthogonalEdgeStyle;rounded=0;orthogonalLoop=1;jettySize=auto;html=1;exitX=1;exitY=0.5;exitDx=0;exitDy=0;entryX=0.5;entryY=1;entryDx=0;entryDy=0;fillColor=#f5f5f5;strokeColor=#666666;movable=0;resizable=0;rotatable=0;deletable=0;editable=0;locked=1;connectable=0;" edge="1" parent="1" source="ZD_779GeT0CRbiyJHTvv-45" target="ZD_779GeT0CRbiyJHTvv-9">
          <mxGeometry relative="1" as="geometry" />
        </mxCell>
        <mxCell id="ZD_779GeT0CRbiyJHTvv-45" value="SQL Query Tool Node" style="ellipse;whiteSpace=wrap;html=1;aspect=fixed;fillColor=#f5f5f5;strokeColor=#666666;labelBackgroundColor=none;labelBorderColor=none;movable=0;resizable=0;rotatable=0;deletable=0;editable=0;locked=1;connectable=0;fontColor=#333333;" parent="1" vertex="1">
          <mxGeometry x="800" y="320" width="80" height="80" as="geometry" />
        </mxCell>
      </root>
    </mxGraphModel>
  </diagram>
</mxfile>
